<svg xmlns="http://www.w3.org/2000/svg" xmlns:xlink="http://www.w3.org/1999/xlink" width="500" zoomAndPan="magnify" viewBox="0 0 375 374.999991" height="500" preserveAspectRatio="xMidYMid meet" version="1.0"><path fill="#ffba00" d="M 87.792969 88.644531 C 88.894531 89.285156 90.722656 89.207031 92.144531 88.945312 L 98.046875 87.824219 C 101.238281 87.222656 105.289062 84.789062 106.808594 81.835938 C 108.140625 79.253906 106.730469 77.566406 103.8125 77.730469 C 75.582031 79.328125 47.636719 83.0625 19.980469 88.929688 C 16.765625 89.609375 11.898438 92.183594 10.84375 95.574219 C 9.746094 99.082031 13.464844 99.269531 15.964844 98.742188 C 26.351562 96.546875 36.785156 94.671875 47.265625 93.125 C 49.148438 123.386719 51.03125 153.648438 52.914062 183.910156 C 53.273438 189.667969 68.054688 183.265625 67.730469 178.042969 L 62.320312 91.085938 C 70.785156 90.078125 79.277344 89.265625 87.792969 88.644531 Z M 87.792969 88.644531 " fill-opacity="1" fill-rule="nonzero"/><path fill="#ffba00" d="M 115.613281 123.757812 C 111.945312 121.277344 106.847656 122.191406 103.003906 123.726562 C 96.789062 126.21875 92.816406 130.847656 89.757812 136.230469 C 89.328125 122.890625 88.902344 109.554688 88.476562 96.214844 C 88.292969 90.527344 73.492188 96.816406 73.664062 102.085938 L 76.046875 176.453125 C 76.15625 179.917969 81.4375 178.5625 83.34375 177.8125 C 86.539062 176.558594 90.148438 174.15625 90.855469 170.585938 C 92.234375 163.664062 94.101562 156.871094 96.460938 150.21875 C 97.617188 146.972656 98.878906 143.769531 100.253906 140.609375 C 100.941406 139.035156 101.65625 137.46875 102.398438 135.910156 C 102.582031 135.527344 103.078125 134.789062 103.558594 134.023438 C 103.742188 134.257812 103.898438 134.507812 104.03125 134.769531 C 104.703125 135.941406 105.179688 137.1875 105.464844 138.507812 C 106.335938 141.90625 106.726562 145.53125 107.082031 149.019531 C 107.816406 156.484375 107.816406 163.945312 107.082031 171.410156 C 106.59375 176.628906 121.390625 170.917969 121.894531 165.542969 C 122.894531 154.84375 122.589844 143.953125 120.449219 133.394531 C 119.742188 129.859375 118.820312 125.917969 115.613281 123.757812 Z M 115.613281 123.757812 " fill-opacity="1" fill-rule="nonzero"/><path fill="#ffba00" d="M 164.117188 102.230469 C 162.195312 97.269531 158.644531 94.539062 153.191406 95.777344 C 139.238281 98.945312 138.207031 115.304688 135.511719 126.847656 C 132.28125 140.636719 129.671875 154.546875 127.679688 168.578125 C 127.179688 172.082031 133.5 170.523438 134.976562 169.945312 C 138.011719 168.746094 141.988281 166.257812 142.492188 162.714844 C 143.332031 156.789062 144.285156 150.878906 145.347656 144.988281 L 156.277344 144.789062 C 156.664062 152.261719 156.464844 159.722656 155.679688 167.164062 C 155.136719 172.328125 169.925781 166.667969 170.492188 161.296875 C 171.964844 147.613281 171.421875 134.015625 168.863281 120.496094 C 167.695312 114.40625 166.363281 108.023438 164.117188 102.230469 Z M 148.1875 130.414062 C 149.222656 125.582031 150.363281 120.777344 151.566406 115.984375 C 151.820312 116.882812 152.074219 117.800781 152.3125 118.707031 C 153.664062 123.929688 154.679688 129.21875 155.355469 134.574219 L 147.304688 134.71875 C 147.609375 133.292969 147.886719 131.847656 148.1875 130.414062 Z M 148.1875 130.414062 " fill-opacity="1" fill-rule="nonzero"/><path fill="#ffba00" d="M 216.265625 105.003906 C 217.539062 111.253906 218.152344 117.566406 218.105469 123.941406 C 218.0625 130.316406 217.359375 136.617188 216 142.847656 C 214.3125 138.371094 212.488281 133.945312 210.539062 129.566406 C 208.253906 124.46875 205.792969 119.445312 203.15625 114.496094 C 201.011719 110.480469 198.945312 107.132812 193.867188 107.835938 C 189.308594 108.464844 183.855469 111.902344 182.480469 116.441406 C 180.925781 121.507812 181.089844 127.703125 180.765625 132.957031 C 180.046875 144.886719 180.199219 156.804688 181.21875 168.710938 C 181.703125 174.519531 196.464844 168.023438 196.027344 162.84375 C 195.28125 154.078125 194.996094 145.296875 195.179688 136.5 C 195.179688 136.105469 195.210938 135.707031 195.222656 135.304688 C 196.175781 137.371094 197.097656 139.449219 197.992188 141.542969 C 201.667969 150.230469 204.84375 159.097656 207.519531 168.140625 C 208.226562 170.507812 213.320312 168.960938 214.578125 168.46875 C 217.542969 167.304688 220.308594 165.289062 221.8125 162.441406 C 224.363281 157.625 226.488281 152.625 228.183594 147.445312 C 229.878906 142.265625 231.121094 136.980469 231.910156 131.589844 C 232.699219 126.195312 233.023438 120.777344 232.882812 115.328125 C 232.746094 109.878906 232.144531 104.484375 231.078125 99.136719 C 229.867188 93.136719 215.28125 100.117188 216.265625 105.003906 Z M 216.265625 105.003906 " fill-opacity="1" fill-rule="nonzero"/><path fill="#ffba00" d="M 299.847656 154.171875 C 296.894531 131.144531 277.804688 114.988281 255.460938 114.464844 C 267.589844 101.117188 276.5 85.0625 280.992188 67.515625 C 282.769531 60.574219 267.957031 66.1875 266.734375 70.976562 C 265.097656 77.476562 262.835938 83.75 259.949219 89.800781 C 257.0625 95.851562 253.609375 101.5625 249.589844 106.925781 C 248.78125 91.789062 247.222656 76.703125 244.914062 61.671875 C 244.015625 55.726562 229.332031 62.519531 230.101562 67.539062 C 235.066406 99.757812 236.589844 132.136719 234.664062 164.679688 C 234.34375 170.035156 249.15625 164.171875 249.476562 158.8125 C 250.136719 147.601562 250.386719 136.386719 250.222656 125.167969 C 268 127.292969 282.660156 141.511719 285.039062 160.039062 C 285.796875 165.941406 300.503906 159.253906 299.847656 154.171875 Z M 299.847656 154.171875 " fill-opacity="1" fill-rule="nonzero"/><path fill="#8e61e5" d="M 360.425781 226.992188 C 356.605469 227.046875 352.613281 229.75 350.289062 232.605469 C 331.632812 255.492188 309.484375 283.417969 277.417969 285.203125 C 250.164062 286.722656 225.878906 269.5625 201.621094 259.804688 C 194.371094 256.886719 186.9375 254.453125 179.328125 253.023438 C 179.234375 252.027344 179.144531 251.03125 179.042969 250.03125 C 177.027344 229.671875 173.070312 209.546875 169.117188 189.484375 C 167.890625 183.246094 155.664062 190.546875 154.582031 194.148438 C 151.929688 202.945312 153.023438 211.703125 152.5625 220.726562 C 152.347656 224.898438 151.804688 229.289062 149.695312 232.980469 C 149.363281 233.554688 149.03125 234.289062 148.519531 234.730469 C 148.492188 234.753906 148.464844 234.78125 148.441406 234.808594 C 147.101562 235.25 145.359375 234.761719 144.1875 234.117188 C 140.664062 232.171875 139.558594 227.804688 138.9375 224.140625 C 138.140625 219.445312 137.648438 214.671875 137.136719 209.933594 C 136.042969 199.554688 135.433594 189.136719 135.21875 178.703125 C 135.105469 173.0625 120.296875 179.28125 120.40625 184.570312 C 120.664062 198.082031 121.664062 211.539062 123.402344 224.945312 C 124.066406 230.03125 124.4375 236.058594 127.671875 240.28125 C 130.601562 244.101562 135.234375 245.519531 139.90625 245.316406 C 148.1875 244.957031 156.257812 240.34375 161.324219 233.699219 C 161.84375 237.035156 162.34375 240.375 162.792969 243.722656 C 163.140625 246.335938 163.492188 248.980469 163.824219 251.640625 L 163.523438 251.640625 C 149.851562 251.957031 133.464844 257.246094 126.84375 270.261719 C 120.628906 282.472656 127.289062 299.570312 136.675781 308.375 C 147.980469 318.980469 164.945312 312.757812 173.5625 301.746094 C 178.53125 295.394531 180.082031 287.375 180.34375 279.484375 C 180.488281 275.03125 180.425781 270.5625 180.230469 266.097656 C 180.628906 266.222656 181.03125 266.351562 181.429688 266.484375 C 193.175781 270.414062 204.253906 276.152344 215.453125 281.371094 C 238.363281 292.050781 262.152344 299.972656 287.367188 292.449219 C 319.9375 282.726562 342.34375 257.148438 363.0625 231.722656 C 365.222656 229.085938 363.417969 226.941406 360.425781 226.992188 Z M 165.207031 290.230469 C 164.847656 293.503906 164.160156 296.816406 162.644531 299.773438 C 161.550781 301.90625 160.457031 303.597656 158.703125 303.628906 C 152.976562 303.722656 148.195312 298.066406 145.4375 293.707031 C 140.171875 285.402344 133.679688 266.433594 147.402344 262.984375 C 153.0625 261.5625 159.089844 261.601562 165.023438 262.441406 C 165.867188 271.753906 166.207031 281.148438 165.207031 290.230469 Z M 165.207031 290.230469 " fill-opacity="1" fill-rule="nonzero"/><path fill="#8e61e5" d="M 219.4375 240.890625 C 230.523438 232.019531 237.457031 213.050781 231.910156 199.527344 C 226.007812 185.132812 208.082031 184.558594 197.089844 193.023438 C 196.511719 193.449219 195.957031 193.90625 195.4375 194.402344 C 184.550781 204.851562 174.691406 221.34375 182.601562 236.488281 C 190.042969 250.714844 208.234375 249.84375 219.4375 240.890625 Z M 206.875 198.824219 C 209.058594 198.390625 210.898438 199.304688 212.425781 200.4375 C 216.246094 203.257812 218.417969 208.148438 218.859375 212.777344 C 219.359375 218.023438 218.835938 223.222656 217.019531 228.121094 C 216.101562 230.601562 213.460938 235.628906 211.53125 236.367188 C 208.613281 237.488281 203.605469 235.738281 201.433594 234.054688 C 197.890625 231.3125 195.644531 226.957031 194.929688 222.574219 C 193.355469 212.921875 203.25 199.546875 206.875 198.824219 Z M 206.875 198.824219 " fill-opacity="1" fill-rule="nonzero"/><path fill="#8e61e5" d="M 265.667969 251.992188 C 292.527344 246.507812 304.527344 212.578125 292.636719 189.703125 C 290.195312 185.011719 275.777344 192.777344 278.300781 197.636719 C 279.328125 199.605469 280.183594 201.648438 280.859375 203.761719 C 281.535156 205.878906 282.027344 208.035156 282.335938 210.234375 C 282.640625 212.433594 282.757812 214.644531 282.683594 216.863281 C 282.609375 219.082031 282.347656 221.277344 281.898438 223.453125 C 280.773438 228.890625 275.929688 243.15625 268.5 241.960938 C 259.769531 240.554688 254.519531 229.261719 252.917969 221.625 C 250.929688 212.214844 252.5 202.027344 257.863281 193.984375 C 259.691406 191.242188 258.460938 189.195312 255.226562 189.230469 C 251.695312 189.285156 247.046875 191.90625 245.089844 194.84375 C 237.757812 205.84375 235.398438 219.117188 239.15625 231.875 C 242.605469 243.625 252.3125 254.71875 265.667969 251.992188 Z M 265.667969 251.992188 " fill-opacity="1" fill-rule="nonzero"/><path fill="#ee4d6c" d="M 86.917969 211.460938 C 80.53125 213.238281 76.648438 217.648438 74.308594 223.035156 C 70.652344 218.351562 64.890625 215.265625 58.5 215.472656 C 44.925781 215.917969 35.660156 227.726562 34.898438 240.601562 C 34.039062 255.234375 43.484375 267.96875 54.457031 276.605469 C 61.390625 282.066406 69.113281 286.222656 77.132812 289.777344 C 74.335938 295.445312 71.386719 301.035156 68.285156 306.542969 C 66.140625 310.320312 71.96875 313.726562 74.109375 309.941406 C 77.371094 304.1875 80.453125 298.34375 83.359375 292.40625 C 87.597656 294.128906 91.878906 295.738281 96.136719 297.332031 C 100.210938 298.855469 101.96875 292.34375 97.933594 290.835938 C 94.179688 289.425781 90.238281 287.964844 86.25 286.378906 C 88.574219 281.386719 90.777344 276.332031 92.855469 271.214844 C 95.71875 264.15625 98.332031 257 100.6875 249.75 C 102.835938 243.113281 105.433594 236.183594 105.859375 229.160156 C 106.515625 218.332031 98.445312 208.253906 86.917969 211.460938 Z M 94.445312 247.140625 C 90.410156 259.664062 85.601562 271.886719 80.015625 283.800781 C 65.121094 277.3125 50.648438 268.535156 44.097656 253.761719 C 39.703125 243.863281 40.800781 230.046875 51.203125 224.34375 C 59.292969 219.902344 70.683594 224.042969 71.660156 232.863281 C 71.363281 234.792969 71.195312 236.726562 71.09375 238.605469 C 70.878906 242.460938 76.699219 243.097656 77.71875 239.503906 C 78.261719 237.589844 78.476562 235.644531 78.367188 233.65625 C 79.636719 225.714844 83.292969 215.996094 92.582031 217.644531 C 105.035156 219.847656 96.6875 240.164062 94.445312 247.140625 Z M 94.445312 247.140625 " fill-opacity="1" fill-rule="nonzero"/><path fill="#ffba00" d="M 87.792969 88.644531 C 88.894531 89.285156 90.722656 89.207031 92.144531 88.945312 L 98.046875 87.824219 C 101.238281 87.222656 105.289062 84.789062 106.808594 81.835938 C 108.140625 79.253906 106.730469 77.566406 103.8125 77.730469 C 75.582031 79.328125 47.636719 83.0625 19.980469 88.929688 C 16.765625 89.609375 11.898438 92.183594 10.84375 95.574219 C 9.746094 99.082031 13.464844 99.269531 15.964844 98.742188 C 26.351562 96.546875 36.785156 94.671875 47.265625 93.125 C 49.148438 123.386719 51.03125 153.648438 52.914062 183.910156 C 53.273438 189.667969 68.054688 183.265625 67.730469 178.042969 L 62.320312 91.085938 C 70.785156 90.078125 79.277344 89.265625 87.792969 88.644531 Z M 87.792969 88.644531 " fill-opacity="1" fill-rule="nonzero"/><path fill="#ffba00" d="M 115.613281 123.757812 C 111.945312 121.277344 106.847656 122.191406 103.003906 123.726562 C 96.789062 126.21875 92.816406 130.847656 89.757812 136.230469 C 89.328125 122.890625 88.902344 109.554688 88.476562 96.214844 C 88.292969 90.527344 73.492188 96.816406 73.664062 102.085938 L 76.046875 176.453125 C 76.15625 179.917969 81.4375 178.5625 83.34375 177.8125 C 86.539062 176.558594 90.148438 174.15625 90.855469 170.585938 C 92.234375 163.664062 94.101562 156.871094 96.460938 150.21875 C 97.617188 146.972656 98.878906 143.769531 100.253906 140.609375 C 100.941406 139.035156 101.65625 137.46875 102.398438 135.910156 C 102.582031 135.527344 103.078125 134.789062 103.558594 134.023438 C 103.742188 134.257812 103.898438 134.507812 104.03125 134.769531 C 104.703125 135.941406 105.179688 137.1875 105.464844 138.507812 C 106.335938 141.90625 106.726562 145.53125 107.082031 149.019531 C 107.816406 156.484375 107.816406 163.945312 107.082031 171.410156 C 106.59375 176.628906 121.390625 170.917969 121.894531 165.542969 C 122.894531 154.84375 122.589844 143.953125 120.449219 133.394531 C 119.742188 129.859375 118.820312 125.917969 115.613281 123.757812 Z M 115.613281 123.757812 " fill-opacity="1" fill-rule="nonzero"/><path fill="#ffba00" d="M 164.117188 102.230469 C 162.195312 97.269531 158.644531 94.539062 153.191406 95.777344 C 139.238281 98.945312 138.207031 115.304688 135.511719 126.847656 C 132.28125 140.636719 129.671875 154.546875 127.679688 168.578125 C 127.179688 172.082031 133.5 170.523438 134.976562 169.945312 C 138.011719 168.746094 141.988281 166.257812 142.492188 162.714844 C 143.332031 156.789062 144.285156 150.878906 145.347656 144.988281 L 156.277344 144.789062 C 156.664062 152.261719 156.464844 159.722656 155.679688 167.164062 C 155.136719 172.328125 169.925781 166.667969 170.492188 161.296875 C 171.964844 147.613281 171.421875 134.015625 168.863281 120.496094 C 167.695312 114.40625 166.363281 108.023438 164.117188 102.230469 Z M 148.1875 130.414062 C 149.222656 125.582031 150.363281 120.777344 151.566406 115.984375 C 151.820312 116.882812 152.074219 117.800781 152.3125 118.707031 C 153.664062 123.929688 154.679688 129.21875 155.355469 134.574219 L 147.304688 134.71875 C 147.609375 133.292969 147.886719 131.847656 148.1875 130.414062 Z M 148.1875 130.414062 " fill-opacity="1" fill-rule="nonzero"/><path fill="#ffba00" d="M 216.265625 105.003906 C 217.539062 111.253906 218.152344 117.566406 218.105469 123.941406 C 218.0625 130.316406 217.359375 136.617188 216 142.847656 C 214.3125 138.371094 212.488281 133.945312 210.539062 129.566406 C 208.253906 124.46875 205.792969 119.445312 203.15625 114.496094 C 201.011719 110.480469 198.945312 107.132812 193.867188 107.835938 C 189.308594 108.464844 183.855469 111.902344 182.480469 116.441406 C 180.925781 121.507812 181.089844 127.703125 180.765625 132.957031 C 180.046875 144.886719 180.199219 156.804688 181.21875 168.710938 C 181.703125 174.519531 196.464844 168.023438 196.027344 162.84375 C 195.28125 154.078125 194.996094 145.296875 195.179688 136.5 C 195.179688 136.105469 195.210938 135.707031 195.222656 135.304688 C 196.175781 137.371094 197.097656 139.449219 197.992188 141.542969 C 201.667969 150.230469 204.84375 159.097656 207.519531 168.140625 C 208.226562 170.507812 213.320312 168.960938 214.578125 168.46875 C 217.542969 167.304688 220.308594 165.289062 221.8125 162.441406 C 224.363281 157.625 226.488281 152.625 228.183594 147.445312 C 229.878906 142.265625 231.121094 136.980469 231.910156 131.589844 C 232.699219 126.195312 233.023438 120.777344 232.882812 115.328125 C 232.746094 109.878906 232.144531 104.484375 231.078125 99.136719 C 229.867188 93.136719 215.28125 100.117188 216.265625 105.003906 Z M 216.265625 105.003906 " fill-opacity="1" fill-rule="nonzero"/><path fill="#ffba00" d="M 299.847656 154.171875 C 296.894531 131.144531 277.804688 114.988281 255.460938 114.464844 C 267.589844 101.117188 276.5 85.0625 280.992188 67.515625 C 282.769531 60.574219 267.957031 66.1875 266.734375 70.976562 C 265.097656 77.476562 262.835938 83.75 259.949219 89.800781 C 257.0625 95.851562 253.609375 101.5625 249.589844 106.925781 C 248.78125 91.789062 247.222656 76.703125 244.914062 61.671875 C 244.015625 55.726562 229.332031 62.519531 230.101562 67.539062 C 235.066406 99.757812 236.589844 132.136719 234.664062 164.679688 C 234.34375 170.035156 249.15625 164.171875 249.476562 158.8125 C 250.136719 147.601562 250.386719 136.386719 250.222656 125.167969 C 268 127.292969 282.660156 141.511719 285.039062 160.039062 C 285.796875 165.941406 300.503906 159.253906 299.847656 154.171875 Z M 299.847656 154.171875 " fill-opacity="1" fill-rule="nonzero"/><path fill="#8e61e5" d="M 360.425781 226.992188 C 356.605469 227.046875 352.613281 229.75 350.289062 232.605469 C 331.632812 255.492188 309.484375 283.417969 277.417969 285.203125 C 250.164062 286.722656 225.878906 269.5625 201.621094 259.804688 C 194.371094 256.886719 186.9375 254.453125 179.328125 253.023438 C 179.234375 252.027344 179.144531 251.03125 179.042969 250.03125 C 177.027344 229.671875 173.070312 209.546875 169.117188 189.484375 C 167.890625 183.246094 155.664062 190.546875 154.582031 194.148438 C 151.929688 202.945312 153.023438 211.703125 152.5625 220.726562 C 152.347656 224.898438 151.804688 229.289062 149.695312 232.980469 C 149.363281 233.554688 149.03125 234.289062 148.519531 234.730469 C 148.492188 234.753906 148.464844 234.78125 148.441406 234.808594 C 147.101562 235.25 145.359375 234.761719 144.1875 234.117188 C 140.664062 232.171875 139.558594 227.804688 138.9375 224.140625 C 138.140625 219.445312 137.648438 214.671875 137.136719 209.933594 C 136.042969 199.554688 135.433594 189.136719 135.21875 178.703125 C 135.105469 173.0625 120.296875 179.28125 120.40625 184.570312 C 120.664062 198.082031 121.664062 211.539062 123.402344 224.945312 C 124.066406 230.03125 124.4375 236.058594 127.671875 240.28125 C 130.601562 244.101562 135.234375 245.519531 139.90625 245.316406 C 148.1875 244.957031 156.257812 240.34375 161.324219 233.699219 C 161.84375 237.035156 162.34375 240.375 162.792969 243.722656 C 163.140625 246.335938 163.492188 248.980469 163.824219 251.640625 L 163.523438 251.640625 C 149.851562 251.957031 133.464844 257.246094 126.84375 270.261719 C 120.628906 282.472656 127.289062 299.570312 136.675781 308.375 C 147.980469 318.980469 164.945312 312.757812 173.5625 301.746094 C 178.53125 295.394531 180.082031 287.375 180.34375 279.484375 C 180.488281 275.03125 180.425781 270.5625 180.230469 266.097656 C 180.628906 266.222656 181.03125 266.351562 181.429688 266.484375 C 193.175781 270.414062 204.253906 276.152344 215.453125 281.371094 C 238.363281 292.050781 262.152344 299.972656 287.367188 292.449219 C 319.9375 282.726562 342.34375 257.148438 363.0625 231.722656 C 365.222656 229.085938 363.417969 226.941406 360.425781 226.992188 Z M 165.207031 290.230469 C 164.847656 293.503906 164.160156 296.816406 162.644531 299.773438 C 161.550781 301.90625 160.457031 303.597656 158.703125 303.628906 C 152.976562 303.722656 148.195312 298.066406 145.4375 293.707031 C 140.171875 285.402344 133.679688 266.433594 147.402344 262.984375 C 153.0625 261.5625 159.089844 261.601562 165.023438 262.441406 C 165.867188 271.753906 166.207031 281.148438 165.207031 290.230469 Z M 165.207031 290.230469 " fill-opacity="1" fill-rule="nonzero"/><path fill="#8e61e5" d="M 219.4375 240.890625 C 230.523438 232.019531 237.457031 213.050781 231.910156 199.527344 C 226.007812 185.132812 208.082031 184.558594 197.089844 193.023438 C 196.511719 193.449219 195.957031 193.90625 195.4375 194.402344 C 184.550781 204.851562 174.691406 221.34375 182.601562 236.488281 C 190.042969 250.714844 208.234375 249.84375 219.4375 240.890625 Z M 206.875 198.824219 C 209.058594 198.390625 210.898438 199.304688 212.425781 200.4375 C 216.246094 203.257812 218.417969 208.148438 218.859375 212.777344 C 219.359375 218.023438 218.835938 223.222656 217.019531 228.121094 C 216.101562 230.601562 213.460938 235.628906 211.53125 236.367188 C 208.613281 237.488281 203.605469 235.738281 201.433594 234.054688 C 197.890625 231.3125 195.644531 226.957031 194.929688 222.574219 C 193.355469 212.921875 203.25 199.546875 206.875 198.824219 Z M 206.875 198.824219 " fill-opacity="1" fill-rule="nonzero"/><path fill="#8e61e5" d="M 265.667969 251.992188 C 292.527344 246.507812 304.527344 212.578125 292.636719 189.703125 C 290.195312 185.011719 275.777344 192.777344 278.300781 197.636719 C 279.328125 199.605469 280.183594 201.648438 280.859375 203.761719 C 281.535156 205.878906 282.027344 208.035156 282.335938 210.234375 C 282.640625 212.433594 282.757812 214.644531 282.683594 216.863281 C 282.609375 219.082031 282.347656 221.277344 281.898438 223.453125 C 280.773438 228.890625 275.929688 243.15625 268.5 241.960938 C 259.769531 240.554688 254.519531 229.261719 252.917969 221.625 C 250.929688 212.214844 252.5 202.027344 257.863281 193.984375 C 259.691406 191.242188 258.460938 189.195312 255.226562 189.230469 C 251.695312 189.285156 247.046875 191.90625 245.089844 194.84375 C 237.757812 205.84375 235.398438 219.117188 239.15625 231.875 C 242.605469 243.625 252.3125 254.71875 265.667969 251.992188 Z M 265.667969 251.992188 " fill-opacity="1" fill-rule="nonzero"/><path fill="#ee4d6c" d="M 86.917969 211.460938 C 80.53125 213.238281 76.648438 217.648438 74.308594 223.035156 C 70.652344 218.351562 64.890625 215.265625 58.5 215.472656 C 44.925781 215.917969 35.660156 227.726562 34.898438 240.601562 C 34.039062 255.234375 43.484375 267.96875 54.457031 276.605469 C 61.390625 282.066406 69.113281 286.222656 77.132812 289.777344 C 74.335938 295.445312 71.386719 301.035156 68.285156 306.542969 C 66.140625 310.320312 71.96875 313.726562 74.109375 309.941406 C 77.371094 304.1875 80.453125 298.34375 83.359375 292.40625 C 87.597656 294.128906 91.878906 295.738281 96.136719 297.332031 C 100.210938 298.855469 101.96875 292.34375 97.933594 290.835938 C 94.179688 289.425781 90.238281 287.964844 86.25 286.378906 C 88.574219 281.386719 90.777344 276.332031 92.855469 271.214844 C 95.71875 264.15625 98.332031 257 100.6875 249.75 C 102.835938 243.113281 105.433594 236.183594 105.859375 229.160156 C 106.515625 218.332031 98.445312 208.253906 86.917969 211.460938 Z M 94.445312 247.140625 C 90.410156 259.664062 85.601562 271.886719 80.015625 283.800781 C 65.121094 277.3125 50.648438 268.535156 44.097656 253.761719 C 39.703125 243.863281 40.800781 230.046875 51.203125 224.34375 C 59.292969 219.902344 70.683594 224.042969 71.660156 232.863281 C 71.363281 234.792969 71.195312 236.726562 71.09375 238.605469 C 70.878906 242.460938 76.699219 243.097656 77.71875 239.503906 C 78.261719 237.589844 78.476562 235.644531 78.367188 233.65625 C 79.636719 225.714844 83.292969 215.996094 92.582031 217.644531 C 105.035156 219.847656 96.6875 240.164062 94.445312 247.140625 Z M 94.445312 247.140625 " fill-opacity="1" fill-rule="nonzero"/></svg>